<svg xmlns="http://www.w3.org/2000/svg" viewBox="0 0 24 24"><path d="M12 23c-.4 0-.8 0-1.2-.1h-.2c-3.9-.5-7.2-3-8.7-6.4 0-.1-.1-.1-.1-.2C1.3 15 1 13.5 1 12c0-2.4.8-4.6 2.1-6.4 0-.1.1-.2.2-.2C5.2 2.7 8.4 1 12 1c.4 0 .8 0 1.2.1h.1c3.9.5 7.2 3 8.7 6.4 0 .1.1.1.1.2.6 1.3.9 2.8.9 4.3 0 2.4-.8 4.6-2.1 6.4 0 .1-.1.2-.2.2-1.9 2.7-5.1 4.4-8.7 4.4zm4.6-9l-4 7c2.5-.2 4.7-1.3 6.3-3.1L16.6 14zM4.5 17c1.3 2 3.4 3.4 5.8 3.8l2.2-3.8h-8zm13-5.5l2.6 4.4c.6-1.2.9-2.6.9-4 0-1.1-.2-2.1-.5-3H16l1.5 2.6zM10.3 15h3.5l1.7-3-1.7-3h-3.5l-1.7 3 1.7 3zm-6.8 0H8l-1.4-2.5L3.9 8c-.6 1.2-.9 2.6-.9 4 0 1.1.2 2.1.5 3zm1.7-8.8L7.4 10l1.4-2.5L11.4 3c-2.5.2-4.7 1.4-6.2 3.2zm9.1.8h5.2c-1.3-2-3.4-3.4-5.8-3.8L11.4 7h2.9z"/></svg>