<svg xmlns="http://www.w3.org/2000/svg" viewBox="0 0 24 24"><path d="M23 24c-.3 0-.5-.1-.7-.3L16.6 18H3c-.4 0-.8-.3-1-.7-.1-.4 0-.9.4-1.1 0 0 2.6-1.9 2.6-8.2 0-.5 0-1 .1-1.4L.3 1.7C-.1 1.3-.1.7.3.3s1-.4 1.4 0L7 5.5l16.7 16.7c.4.4.4 1 0 1.4-.2.3-.4.4-.7.4zM5.1 16h9.4L7 8.4c-.1 3.8-1 6.2-1.9 7.6zm6.9 7c-.5 0-1-.1-1.5-.4-.5-.3-.8-.6-1.1-1.1-.3-.5-.1-1.1.4-1.4.5-.3 1.1-.1 1.4.4.1.1.2.3.4.4.5.3 1.1.1 1.4-.4.3-.5.9-.6 1.4-.4.5.3.6.9.4 1.4C14 22.5 13 23 12 23zm6.6-9c-.4 0-.8-.3-1-.7-.4-1.8-.6-3.5-.6-5.3 0-2.8-2.2-5-5-5-1 0-2 .3-2.8.8-.4.3-1.1.2-1.4-.2-.3-.5-.1-1.1.3-1.4C9.3 1.4 10.6 1 12 1c1.9 0 3.6.7 5 2 1.3 1.3 2 3.1 2 4.9 0 1.6.2 3.2.6 4.7.1.5-.2 1.1-.7 1.2-.1.2-.2.2-.3.2z"/></svg>