<svg xmlns="http://www.w3.org/2000/svg" viewBox="0 0 24 24"><path d="M23 24c-.3 0-.5-.1-.7-.3L20.6 22H3c-1.7 0-3-1.3-3-3V8c0-1.7 1.3-3 3-3h.6L.3 1.7C-.1 1.3-.1.7.3.3s1-.4 1.4 0L10.4 9l5.5 5.5 7.7 7.7c.4.4.4 1 0 1.4-.1.3-.3.4-.6.4zM3 7c-.6 0-1 .4-1 1v11c0 .6.4 1 1 1h15.6l-3.3-3.3c-.7.6-1.5 1-2.4 1.2-1.3.2-2.6 0-3.7-.8s-1.8-1.9-2.1-3.2c-.2-1.3 0-2.6.8-3.7.1-.2.2-.4.4-.5L5.6 7H3zm6.7 4.1c-.1.1-.1.2-.2.2-.4.7-.6 1.5-.5 2.3.1.8.6 1.5 1.3 1.9.7.5 1.5.6 2.2.5.5-.1 1-.3 1.4-.6l-4.2-4.3zM23 18.3c-.6 0-1-.4-1-1V8c0-.6-.4-1-1-1h-4c-.3 0-.6-.2-.8-.4L14.5 4H9c-.6 0-1-.4-1-1s.4-1 1-1h6c.3 0 .6.2.8.4L17.5 5H21c1.7 0 3 1.3 3 3v9.3c0 .6-.4 1-1 1z"/></svg>