<svg xmlns="http://www.w3.org/2000/svg" viewBox="0 0 24 24"><path d="M12 23c-.4 0-.8 0-1.2-.1h-.2C5.2 22.3 1 17.6 1 12c0-2.4.8-4.6 2.1-6.4 0-.1.1-.2.2-.2C5.2 2.7 8.4 1 12 1c4.5 0 8.3 2.7 10 6.5 0 .1.1.1.1.2.6 1.3.9 2.8.9 4.3 0 6.1-4.9 11-11 11zm4.3-8.4L12.6 21c4.7-.3 8.4-4.2 8.4-9 0-1.1-.2-2.1-.5-3H16c.6.8 1 1.9 1 3 0 1-.3 1.9-.7 2.6zM3.9 8c-.6 1.2-.9 2.6-.9 4 0 4.4 3.2 8.1 7.4 8.8l2.2-3.9H12c-1.9 0-3.6-1.1-4.4-2.6L3.9 8zm5.5 5.6c.6.8 1.5 1.4 2.6 1.4s2-.6 2.5-1.4l.1-.1v-.1c.3-.4.4-.9.4-1.4 0-1.7-1.3-3-3-3s-3 1.3-3 3c0 .5.1 1 .3 1.4l.1.2c0-.1 0-.1 0 0zM5.2 6.2L7.4 10c.8-1.7 2.5-3 4.6-3h7.5c-1.6-2.4-4.4-4-7.5-4-2.7 0-5.2 1.2-6.8 3.2z"/></svg>