<?xml version="1.0" encoding="utf-8"?>
<svg version="1.1" xmlns="http://www.w3.org/2000/svg" viewBox="0 0 24 24">
<path d="M12,24c-0.6,0-1-0.4-1-1v-2c0-0.6,0.4-1,1-1s1,0.4,1,1v2C13,23.6,12.6,24,12,24z M16,22c-0.6,0-1-0.4-1-1v-2c0-0.6,0.4-1,1-1s1,0.4,1,1v2C17,21.6,16.6,22,16,22z M8,22c-0.6,0-1-0.4-1-1v-2c0-0.6,0.4-1,1-1s1,0.4,1,1v2C9,21.6,8.6,22,8,22zM12,18c-0.6,0-1-0.4-1-1v-2c0-0.6,0.4-1,1-1s1,0.4,1,1v2C13,17.6,12.6,18,12,18z M20,17.6c-0.4,0-0.8-0.2-0.9-0.6c-0.2-0.5,0-1.1,0.5-1.3c1-0.4,1.7-1.2,2.1-2.2s0.4-2.1-0.1-3.1C21,8.9,19.6,8,18,8h-1.3c-0.5,0-0.9-0.3-1-0.8c-1-3.7-4.8-6-8.5-5C5.4,2.7,3.9,3.8,3,5.4s-1.2,3.5-0.7,5.3c0.4,1.5,1.2,2.8,2.4,3.7c0.4,0.3,0.5,1,0.2,1.4c-0.3,0.4-1,0.5-1.4,0.2c-1.5-1.2-2.6-2.9-3.1-4.8c-0.6-2.3-0.3-4.8,1-6.8c1.2-2.1,3.2-3.5,5.5-4.1c4.6-1.2,9.2,1.4,10.7,5.7H18c2.4,0,4.5,1.4,5.5,3.6c0.6,1.5,0.7,3.1,0.1,4.6s-1.7,2.7-3.2,3.3C20.3,17.6,20.1,17.6,20,17.6z M16,16c-0.6,0-1-0.4-1-1v-2c0-0.6,0.4-1,1-1s1,0.4,1,1v2C17,15.6,16.6,16,16,16z M8,16c-0.6,0-1-0.4-1-1v-2c0-0.6,0.4-1,1-1s1,0.4,1,1v2C9,15.6,8.6,16,8,16z"/></svg>
