<svg xmlns="http://www.w3.org/2000/svg" viewBox="0 0 24 24"><path d="M23 24c-.3 0-.5-.1-.7-.3l-2.9-2.9c-.4.1-.9.2-1.4.2H9c-3.3.1-6.4-1.7-8-4.6-1.2-2.1-1.4-4.5-.8-6.8.6-2 1.7-3.6 3.2-4.8L.3 1.7C-.1 1.3-.1.7.3.3s1-.4 1.4 0l4 4L20.4 19l3.3 3.3c.4.4.4 1 0 1.4-.2.2-.4.3-.7.3zM4.9 6.3c-1.3.9-2.3 2.2-2.7 3.8-.5 1.8-.3 3.7.6 5.3C4 17.7 6.4 19.1 9 19h8.6L4.9 6.3zM22.6 18c-.1 0-.3 0-.4-.1-.5-.2-.7-.8-.5-1.3.9-2-.1-4.4-2.1-5.2-.5-.2-1-.3-1.6-.3h-1.3c-.5 0-.9-.3-1-.8-.7-2.9-3.1-5-6.1-5.3-.6 0-1-.5-.9-1.1 0-.6.5-1 1.1-.9 3.5.3 6.5 2.7 7.7 6h.5c.8 0 1.6.2 2.3.5 3 1.3 4.5 4.8 3.2 7.9-.1.3-.5.6-.9.6z"/></svg>