<svg xmlns="http://www.w3.org/2000/svg" viewBox="0 0 24 24"><path d="M12,23c-0.6,0-1-0.4-1-1s0.4-1,1-1h0c0.6,0,1,0.4,1,1S12.6,23,12,23z M16,21c-0.6,0-1-0.4-1-1s0.4-1,1-1h0c0.6,0,1,0.4,1,1S16.6,21,16,21z M8,21c-0.6,0-1-0.4-1-1s0.4-1,1-1h0c0.6,0,1,0.4,1,1S8.6,21,8,21z M12,19c-0.6,0-1-0.4-1-1s0.4-1,1-1h0c0.6,0,1,0.4,1,1S12.6,19,12,19z M20,18.6c-0.4,0-0.8-0.2-0.9-0.6c-0.2-0.5,0-1.1,0.5-1.3c1-0.4,1.7-1.2,2.1-2.2c0.4-1,0.4-2.1-0.1-3.1C21,9.9,19.6,9,18,9h-1.3c-0.5,0-0.9-0.3-1-0.8c-1-3.7-4.8-6-8.5-5C5.4,3.7,3.9,4.8,3,6.4s-1.2,3.5-0.7,5.3c0.4,1.5,1.2,2.8,2.4,3.7c0.4,0.3,0.5,1,0.2,1.4c-0.3,0.4-1,0.5-1.4,0.2c-1.5-1.2-2.6-2.9-3.1-4.8c-0.6-2.3-0.3-4.8,1-6.8c1.2-2.1,3.2-3.5,5.5-4.1c4.6-1.2,9.2,1.4,10.7,5.7H18c2.4,0,4.5,1.4,5.5,3.6c0.6,1.5,0.7,3.1,0.1,4.6c-0.6,1.5-1.7,2.7-3.2,3.3C20.3,18.6,20.1,18.6,20,18.6z M16,17c-0.6,0-1-0.4-1-1s0.4-1,1-1h0c0.6,0,1,0.4,1,1S16.6,17,16,17z M8,17c-0.6,0-1-0.4-1-1s0.4-1,1-1h0c0.6,0,1,0.4,1,1S8.6,17,8,17z"/></svg>