<svg xmlns="http://www.w3.org/2000/svg" viewBox="0 0 24 24"><path d="M12 23.1c-.2 0-.3 0-.5-.1-.4-.1-.7-.2-1-.4l-3.2-1.8c-.2 0-.4-.2-.6-.3l-3.3-1.9C2.6 18.1 2 17.1 2 16V8c0-.5.1-.9.3-1.3 0-.1.1-.1.1-.2s.1-.2.2-.2c.2-.3.6-.6.9-.8l3.3-1.9c.1-.2.3-.3.6-.3l3.2-1.8c.9-.5 2.1-.5 3 0l3.2 1.8c.2 0 .4.1.6.3l3.2 1.9c.4.2.7.5.9.8l.2.2c0 .1.1.1.1.2.1.4.2.8.2 1.3v8c0 1.1-.6 2.1-1.5 2.6l-3.3 1.9c-.1.2-.3.3-.6.3l-3.2 1.8c-.3.2-.7.3-1 .4-.1 0-.2.1-.4.1zm1-10.5v8l2.5-1.4v-4.6c0-.4.2-.7.5-.9l4-2.3V8.5l-7 4.1zm-4.5 6.6l2.5 1.4v-8l-7-4v2.9l4 2.3c.3.2.5.5.5.9v4.5zM4 13.7V16c0 .4.2.7.5.9l2 1.1v-2.8L4 13.7zm13.5 1.5V18l2-1.1c.3-.2.5-.5.5-.9v-2.3l-2.5 1.5zm3.5.8zM5 6.8l7 4 7-4-2.5-1.4-3.9 2.3c-.3.2-.7.2-1 0l-4-2.3L5 6.8zm4.6-2.6L12 5.7l2.4-1.4-1.9-1.1c-.3-.2-.7-.2-1 0l-1.9 1z"/></svg>