<svg xmlns="http://www.w3.org/2000/svg" viewBox="0 0 24 24"><path d="M12 23c-.2 0-.4-.1-.6-.2l-10-6.5c-.1-.1-.2-.1-.3-.2 0-.2-.1-.4-.1-.6v-7c0-.2.1-.4.2-.6.1-.1.2-.2.3-.2l10-6.5c.3-.2.8-.2 1.1 0l10 6.5c.1.1.2.1.3.2 0 .2.1.4.1.6v7c0 .2-.1.4-.2.6v.1c-.1.1-.2.2-.3.2l-10 6.5c-.1 0-.3.1-.5.1zm1-7v4.1l7.2-4.7-3.2-2.2-4 2.8zm-9.2-.5l7.2 4.7V16l-4-2.8-3.2 2.3zM8.7 12l3.3 2.3 3.3-2.3L12 9.7 8.7 12zm10 0l2.3 1.6v-3.2L18.7 12zM3 10.4v3.2L5.3 12 3 10.4zM13 8l4 2.8 3.2-2.2L13 3.8V8zm-9.2.5L7 10.8 11 8V3.8L3.8 8.5z"/></svg>