<svg xmlns="http://www.w3.org/2000/svg" viewBox="0 0 24 24"><path d="M15 24c-.6 0-1-.4-1-1v-2h-4v2c0 .6-.4 1-1 1s-1-.4-1-1v-2H6c-1.7 0-3-1.3-3-3v-3H1c-.6 0-1-.4-1-1s.4-1 1-1h2v-3H1c-.6 0-1-.4-1-1s.4-1 1-1h2V6c0-1.7 1.3-3 3-3h2V1c0-.6.4-1 1-1s1 .4 1 1v2h4V1c0-.6.4-1 1-1s1 .4 1 1v2h2c1.7 0 3 1.3 3 3v2h2c.6 0 1 .4 1 1s-.4 1-1 1h-2v3h2c.6 0 1 .4 1 1s-.4 1-1 1h-2v3c0 1.7-1.3 3-3 3h-2v2c0 .6-.4 1-1 1zm0-5h3c.6 0 1-.4 1-1V6c0-.6-.4-1-1-1H6c-.6 0-1 .4-1 1v12c0 .6.4 1 1 1h9zm0-3H9c-.6 0-1-.4-1-1V9c0-.6.4-1 1-1h6c.6 0 1 .4 1 1v6c0 .6-.4 1-1 1zm-5-2h4v-4h-4v4z"/></svg>