<svg xmlns="http://www.w3.org/2000/svg" viewBox="0 0 24 24"><path d="M23 24c-.3 0-.5-.1-.7-.3l-4.5-4.5C16.1 20.4 14.1 21 12 21 4.5 21 .3 12.8.1 12.4c-.1-.3-.1-.6 0-.9 1.1-2.1 2.6-4 4.4-5.5L.3 1.7C-.1 1.3-.1.7.3.3s1-.4 1.4 0l5 5 3.8 3.8 4.2 4.2 3.8 3.8 5 5c.4.4.4 1 0 1.4 0 .4-.2.5-.5.5zM2.1 12c.9 1.6 4.5 7 9.9 7 1.5 0 3-.4 4.4-1.2l-2.3-2.3c-.6.4-1.3.6-2 .6-1.1 0-2.1-.3-2.9-1.1-.8-.7-1.2-1.7-1.3-2.8 0-.8.2-1.6.6-2.3L6 7.4C4.4 8.7 3.2 10.2 2.1 12zm7.9-.6c-.1.2-.1.5-.1.7 0 .5.2 1 .6 1.4.4.4.9.6 1.4.5.2 0 .4 0 .6-.1L10 11.4zm10.8 4.8c-.2 0-.5-.1-.6-.2-.4-.4-.5-1-.1-1.4.7-.8 1.3-1.6 1.8-2.5-.9-1.6-4.5-7-9.9-7-.6 0-1.3.1-1.9.2-.5 0-1-.3-1.2-.8-.1-.6.2-1.1.8-1.2.7-.2 1.5-.3 2.3-.3 7.5 0 11.7 8.2 11.9 8.6.1.3.1.6 0 .9-.6 1.2-1.4 2.3-2.3 3.4-.2.2-.5.3-.8.3z"/></svg>