<svg xmlns="http://www.w3.org/2000/svg" viewBox="0 0 24 24"><path d="M8.5 24C6 24 4 22 4 19.5c0-1.4.7-2.7 1.7-3.5-1-.8-1.7-2.1-1.7-3.5S4.7 9.8 5.7 9C4.7 8.2 4 6.9 4 5.5 4 3 6 1 8.5 1h7C18 1 20 3 20 5.5c0 1.4-.7 2.7-1.7 3.5 1 .8 1.7 2.1 1.7 3.5 0 2.5-2 4.5-4.5 4.5-.9 0-1.8-.3-2.5-.8v3.3C13 22 11 24 8.5 24zm0-7C7.1 17 6 18.1 6 19.5S7.1 22 8.5 22s2.5-1.1 2.5-2.5V17H8.5zm7-7c-1.4 0-2.5 1.1-2.5 2.5s1.1 2.5 2.5 2.5 2.5-1.1 2.5-2.5-1.1-2.5-2.5-2.5zm-7 0C7.1 10 6 11.1 6 12.5S7.1 15 8.5 15H11v-5H8.5zm7-2C16.9 8 18 6.9 18 5.5S16.9 3 15.5 3H13v5h2.5zm-7 0H11V3H8.5C7.1 3 6 4.1 6 5.5S7.1 8 8.5 8z"/></svg>