<svg xmlns="http://www.w3.org/2000/svg" viewBox="0 0 24 24"><path d="M12 23c-3 0-5.7-1.2-7.7-3.2l-.1-.1-.1-.1C2.2 17.7 1 15 1 12s1.2-5.7 3.2-7.7l.1-.1.1-.1C6.3 2.2 9 1 12 1s5.7 1.2 7.7 3.2l.1.1.1.1c2 2 3.2 4.7 3.2 7.7s-1.2 5.7-3.2 7.7l-.1.1-.1.1c-2 1.8-4.7 3-7.7 3zm-5.6-4c1.5 1.2 3.5 2 5.6 2 2.1 0 4.1-.7 5.6-2l-2.9-2.9c-.7.6-1.7.9-2.7.9s-2-.3-2.8-.8L6.4 19zM5 6.4C3.7 7.9 3 9.9 3 12c0 2.1.7 4.1 2 5.6l2.9-2.9C7.3 14 7 13 7 12s.3-2 .8-2.8L5 6.4zm11.2 8.4l2.9 2.9c1.2-1.5 2-3.5 2-5.6 0-2.1-.7-4.1-2-5.6l-2.9 2.9c.5.6.8 1.6.8 2.6s-.3 2-.8 2.8zM12 9c-1.7 0-3 1.3-3 3s1.3 3 3 3 3-1.3 3-3-1.3-3-3-3zm0-2c1 0 2 .3 2.8.8L17.6 5c-1.5-1.2-3.5-2-5.6-2-2.1 0-4.1.7-5.6 2l2.9 2.9C10 7.3 11 7 12 7z"/></svg>