<svg xmlns="http://www.w3.org/2000/svg" viewBox="0 0 24 24"><path d="M12 23c-.6 0-1-.4-1-1v-4c0-.6.4-1 1-1s1 .4 1 1v4c0 .6-.4 1-1 1zm-7.1-2.9c-.3 0-.5-.1-.7-.3-.4-.4-.4-1 0-1.4L7 15.6c.4-.4 1-.4 1.4 0s.4 1 0 1.4l-2.8 2.8c-.2.2-.4.3-.7.3zm14.2 0c-.3 0-.5-.1-.7-.3L15.6 17c-.4-.4-.4-1 0-1.4s1-.4 1.4 0l2.8 2.8c.4.4.4 1 0 1.4-.2.2-.5.3-.7.3zM22 13h-4c-.6 0-1-.4-1-1s.4-1 1-1h4c.6 0 1 .4 1 1s-.4 1-1 1zM6 13H2c-.6 0-1-.4-1-1s.4-1 1-1h4c.6 0 1 .4 1 1s-.4 1-1 1zm1.8-4.2c-.3 0-.5-.1-.7-.3L4.2 5.6c-.4-.4-.4-1 0-1.4s1-.4 1.4 0L8.4 7c.4.4.4 1 0 1.4-.1.3-.4.4-.6.4zm8.4 0c-.3 0-.5-.1-.7-.3-.4-.4-.4-1 0-1.4l2.8-2.8c.4-.4 1-.4 1.4 0s.4 1 0 1.4l-2.8 2.8c-.1.2-.4.3-.7.3zM12 7c-.6 0-1-.4-1-1V2c0-.6.4-1 1-1s1 .4 1 1v4c0 .6-.4 1-1 1z"/></svg>