<svg xmlns="http://www.w3.org/2000/svg" viewBox="0 0 24 24"><path d="M23 24c-.3 0-.5-.1-.7-.3l-5.4-5.4c-1.2.9-2.5 1.5-3.9 1.6v2h3c.6 0 1 .4 1 1s-.4 1-1 1H8c-.6 0-1-.4-1-1s.4-1 1-1h3v-2c-1.7-.2-3.3-.9-4.6-2.2C4.9 16.3 4 14.2 4 12v-2c0-.6.4-1 1-1s1 .4 1 1v2c0 1.6.6 3.2 1.8 4.3 1.1 1 2.4 1.6 3.9 1.7.2-.1.4-.1.6 0 1.2-.1 2.3-.4 3.2-1.1L14 15.4c-.6.4-1.3.6-2 .6-1.1 0-2.1-.4-2.8-1.2C8.4 14.1 8 13.1 8 12V9.4L.3 1.7C-.1 1.3-.1.7.3.3s1-.4 1.4 0l15.8 15.8c.1 0 .1.1.2.2l.2.2 5.8 5.8c.4.4.4 1 0 1.4-.2.2-.4.3-.7.3zM10 11.4v.6c0 .5.2 1 .6 1.4.4.4.9.6 1.4.6.2 0 .3 0 .5-.1L10 11.4zm8.9 2.8h-.2c-.5-.1-.9-.6-.8-1.2.1-.3.1-.6.1-1v-2c0-.6.4-1 1-1s1 .4 1 1v2c0 .5 0 .9-.1 1.4-.1.5-.5.8-1 .8zM15 10.3c-.6 0-1-.4-1-1V4c0-.5-.2-1-.6-1.4-.4-.4-.9-.6-1.4-.6-.9 0-1.8.7-2 1.6-.1.5-.6.9-1.1.8-.6-.1-.9-.7-.8-1.2.4-1.9 2-3.2 3.9-3.2 1.1 0 2.1.4 2.8 1.2S16 2.9 16 4v5.3c0 .6-.4 1-1 1z"/></svg>