<svg xmlns="http://www.w3.org/2000/svg" viewBox="0 0 24 24"><path d="M15 23c-.3 0-.5-.1-.7-.3l-3-3c-.3-.3-.4-.7-.2-1.1l-5.8-1.2c-.4-.1-.7-.4-.8-.7L1 2.3v-.2-.2c0-.2.1-.5.3-.6.2-.2.4-.3.6-.3h.4l14.5 3.5c.4.1.7.4.7.8l1.2 5.8c.4-.1.8-.1 1.1.2l3 3c.4.4.4 1 0 1.4l-7 7c-.3.2-.5.3-.8.3zm-1.6-4l1.6 1.6 5.6-5.6-1.6-1.6-5.6 5.6zm-7.1-3.4l6.3 1.3 4.2-4.2-1.3-6.3L5.2 3.8l4.5 4.5c.4-.2.8-.3 1.3-.3 1.7 0 3 1.3 3 3s-1.3 3-3 3-3-1.3-3-3c0-.5.1-.9.3-1.3L3.8 5.2l2.5 10.4zM11 10c-.6 0-1 .4-1 1s.4 1 1 1 1-.4 1-1-.4-1-1-1z"/></svg>