<svg xmlns="http://www.w3.org/2000/svg" viewBox="0 0 24 24"><path d="M19.1 20.1c-.3 0-.5-.1-.7-.3-.4-.4-.4-1 0-1.4 3.5-3.5 3.5-9.2 0-12.7-.4-.4-.4-1 0-1.4.4-.4 1-.4 1.4 0 4.3 4.3 4.3 11.3 0 15.6-.2.1-.5.2-.7.2zm-14.2 0c-.3 0-.5-.1-.7-.3-4.3-4.3-4.3-11.3 0-15.6.4-.4 1-.4 1.4 0 .4.4.4 1 0 1.4-3.5 3.5-3.5 9.2 0 12.7.4.4.4 1 0 1.4-.2.3-.4.4-.7.4zm11.3-2.8c-.2 0-.3 0-.4-.1-.5-.2-.7-.8-.4-1.3l.3-.3c1.9-1.9 1.9-5.1-.1-7-.4-.4-.4-1 0-1.4s1-.4 1.4 0c2.7 2.7 2.7 7.2 0 9.9-.2 0-.5.2-.8.2zm-8.4-.1c-.3 0-.5-.1-.7-.3-2.7-2.7-2.7-7.2 0-9.9.4-.4 1-.4 1.4 0 .4.4.4 1 0 1.4-1 1-1.5 2.3-1.5 3.6 0 1.3.5 2.6 1.5 3.5.4.4.4 1 0 1.4-.2.2-.5.3-.7.3zM12 15c-1.7 0-3-1.3-3-3s1.3-3 3-3 3 1.3 3 3-1.3 3-3 3zm0-4c-.6 0-1 .4-1 1s.4 1 1 1 1-.4 1-1-.4-1-1-1z"/></svg>