<svg xmlns="http://www.w3.org/2000/svg" viewBox="0 0 24 24"><path d="M12 22c-2.7 0-5.2-1-7.1-2.9L2 16.3V20c0 .6-.4 1-1 1s-1-.4-1-1v-6c0-.1 0-.2.1-.3 0-.1.1-.2.2-.3.1-.1.2-.2.3-.2.1-.2.2-.2.4-.2h6c.6 0 1 .4 1 1s-.4 1-1 1H3.5l2.8 2.6C7.9 19.2 9.9 20 12 20s4.1-.8 5.7-2.3c.8-.8 1.5-1.9 1.9-3 .2-.5.8-.8 1.3-.6.5.2.8.8.6 1.3-.5 1.4-1.3 2.7-2.4 3.7C17.2 21 14.7 22 12 22zm11-11h-6c-.6 0-1-.4-1-1s.4-1 1-1h3.5l-2.8-2.6c-.9-.9-1.9-1.5-3-1.9-2-.7-4.2-.6-6.1.3-2 .9-3.4 2.5-4.1 4.5-.2.5-.8.8-1.3.6-.5-.1-.8-.7-.6-1.2.9-2.6 2.7-4.6 5.1-5.7 2.4-1.2 5.1-1.3 7.6-.4C16.7 3.1 18 3.9 19 5l3 2.7V4c0-.6.4-1 1-1s1 .4 1 1v6c0 .1 0 .2-.1.3 0 .1-.1.2-.2.3-.1.1-.2.2-.3.2-.1.2-.3.2-.4.2z"/></svg>