<svg xmlns="http://www.w3.org/2000/svg" viewBox="0 0 24 24"><path d="M12 22c-2.6 0-5.1-1-7.1-2.9-1-1-1.9-2.3-2.4-3.7-.2-.5.1-1.1.6-1.3.5-.2 1.1.1 1.3.6.4 1.1 1 2.2 1.9 3 3.1 3.1 8.2 3.1 11.3 0l2.8-2.7H17c-.6 0-1-.4-1-1s.4-1 1-1h6c.1 0 .2 0 .4.1.1.1.2.1.3.2.1.1.1.2.2.3 0 .1.1.2.1.3v6c0 .6-.4 1-1 1s-1-.4-1-1v-3.7L19 19c-1.9 2-4.4 3-7 3zM7 11H1c-.1 0-.3 0-.4-.1-.1 0-.2-.1-.3-.2v-.1c-.1-.1-.1-.2-.2-.3-.1 0-.1-.1-.1-.3V4c0-.6.4-1 1-1s1 .4 1 1v3.7l3-2.8c1-1 2.3-1.8 3.7-2.3 2.5-.9 5.2-.7 7.6.4 2.4 1.2 4.2 3.2 5.1 5.7.2.5-.1 1.1-.6 1.3-.5.2-1.1-.1-1.3-.6-.7-2-2.2-3.6-4.1-4.6-1.9-.9-4.1-1-6.1-.3-1.1.4-2.2 1-3 1.9L3.5 9H7c.6 0 1 .4 1 1s-.4 1-1 1z"/></svg>