<svg xmlns="http://www.w3.org/2000/svg" viewBox="0 0 24 24"><path d="M7 24c-.3 0-.5-.1-.7-.3l-4-4c-.1-.1-.2-.2-.2-.3-.1-.1-.1-.3-.1-.4 0-.1 0-.3.1-.4 0-.1.1-.2.2-.3l4-4c.4-.4 1-.4 1.4 0s.4 1 0 1.4L5.4 18H17c1.7 0 3-1.3 3-3v-2c0-.6.4-1 1-1s1 .4 1 1v2c0 2.8-2.2 5-5 5H5.4l2.3 2.3c.4.4.4 1 0 1.4-.2.2-.4.3-.7.3zM3 12c-.6 0-1-.4-1-1V9c0-2.8 2.2-5 5-5h11.6l-2.3-2.3c-.4-.4-.4-1 0-1.4s1-.4 1.4 0l4 4c.1.1.2.2.2.3.1.1.1.3.1.4 0 .1 0 .3-.1.4 0 .1-.1.2-.2.3l-4 4c-.4.4-1 .4-1.4 0s-.4-1 0-1.4L18.6 6H7C5.3 6 4 7.3 4 9v2c0 .6-.4 1-1 1z"/></svg>