<svg xmlns="http://www.w3.org/2000/svg" viewBox="0 0 24 24"><path d="M6 22c-2.2 0-4-1.8-4-4s1.8-4 4-4c.7 0 1.4.2 2 .6l2.6-2.6L8 9.4c-.6.4-1.3.6-2 .6-2.2 0-4-1.8-4-4s1.8-4 4-4 4 1.8 4 4c0 .7-.2 1.4-.6 2l2.6 2.6 7.3-7.3c.4-.4 1-.4 1.4 0s.4 1 0 1.4l-8 8L9.4 16c.4.6.6 1.3.6 2 0 2.2-1.8 4-4 4zm0-6c-1.1 0-2 .9-2 2s.9 2 2 2 2-.9 2-2c0-.5-.2-1-.6-1.4-.4-.4-.9-.6-1.4-.6zM6 4c-1.1 0-2 .9-2 2s.9 2 2 2c.5 0 1-.2 1.4-.6.4-.4.6-.9.6-1.4 0-1.1-.9-2-2-2zm14 17c-.3 0-.5-.1-.7-.3l-5.5-5.5c-.4-.4-.4-1 0-1.4.4-.4 1-.4 1.4 0l5.5 5.5c.4.4.4 1 0 1.4-.2.2-.4.3-.7.3z"/></svg>