<svg xmlns="http://www.w3.org/2000/svg" viewBox="0 0 24 24"><path d="M18 23c-2.2 0-4-1.8-4-4 0-.4.1-.7.2-1.1l-5.3-3.1C8.1 15.5 7.1 16 6 16c-2.2 0-4-1.8-4-4s1.8-4 4-4c1.1 0 2.1.5 2.8 1.2l5.3-3.1c0-.4-.1-.7-.1-1.1 0-2.2 1.8-4 4-4s4 1.8 4 4-1.8 4-4 4c-1.1 0-2.1-.5-2.8-1.2l-5.3 3.1c0 .4.1.7.1 1.1s-.1.7-.1 1.1l5.3 3.1c.7-.7 1.7-1.2 2.8-1.2 2.2 0 4 1.8 4 4s-1.8 4-4 4zm-1.8-4.9c-.1.3-.2.6-.2.9 0 1.1.9 2 2 2s2-.9 2-2-.9-2-2-2c-.7 0-1.3.4-1.7.9 0 0 0 .1-.1.2.1-.1 0 0 0 0zM6 10c-1.1 0-2 .9-2 2s.9 2 2 2c.7 0 1.4-.4 1.7-1 .2-.3.3-.7.3-1s-.1-.7-.2-1c-.4-.6-1.1-1-1.8-1zm10.3-4c.4.6 1 1 1.7 1 1.1 0 2-.9 2-2s-.9-2-2-2-2 .9-2 2c0 .3.1.7.3 1z"/></svg>