<svg xmlns="http://www.w3.org/2000/svg" viewBox="0 0 24 24"><path d="M23 24c-.3 0-.5-.1-.7-.3L17.6 19c-1.5 1.5-3.3 2.8-5.2 3.8-.3.1-.6.2-.9 0C11.2 22.7 3 18.5 3 12V5c0-.2 0-.3.1-.5L.3 1.7C-.1 1.3-.1.7.3.3s1-.4 1.4 0L5.4 4l12.9 12.9 5.4 5.4c.4.4.4 1 0 1.4-.2.2-.4.3-.7.3zM5 6.4V12c0 4.5 5.4 7.9 7 8.9 1.6-.9 3-2 4.2-3.2L5 6.4zM19.7 15h-.3c-.5-.2-.8-.7-.7-1.3.2-.6.3-1.1.3-1.7V5.7l-7-2.6-2.8 1c-.5.2-1.1-.1-1.3-.6-.2-.5.1-1.1.6-1.3L11.7 1c.2-.1.5-.1.7 0l8 3c.3.2.6.6.6 1v7c0 .8-.1 1.6-.4 2.3-.1.4-.5.7-.9.7z"/></svg>