<svg xmlns="http://www.w3.org/2000/svg" viewBox="0 0 24 24"><path d="M21 22h-5c-.6 0-1-.4-1-1s.4-1 1-1h2.6l-4.3-4.3c-.4-.4-.4-1 0-1.4s1-.4 1.4 0l4.3 4.3V16c0-.6.4-1 1-1s1 .4 1 1v5c0 .1 0 .3-.1.4 0 .1-.1.2-.2.3s-.2.2-.3.2c-.1.1-.3.1-.4.1zM4 21c-.3 0-.5-.1-.7-.3-.4-.4-.4-1 0-1.4L18.6 4H16c-.6 0-1-.4-1-1s.4-1 1-1h5c.1 0 .3 0 .4.1.1 0 .2.1.3.2s.2.2.2.3c.1.1.1.3.1.4v5c0 .6-.4 1-1 1s-1-.4-1-1V5.4L4.7 20.7c-.2.2-.4.3-.7.3zm5-11c-.3 0-.5-.1-.7-.3l-5-5c-.4-.4-.4-1 0-1.4s1-.4 1.4 0l5 5c.4.4.4 1 0 1.4-.2.2-.4.3-.7.3z"/></svg>