<svg xmlns="http://www.w3.org/2000/svg" viewBox="0 0 24 24"><path d="M20 22c-.6 0-1-.4-1-1v-4h-2c-.6 0-1-.4-1-1s.4-1 1-1h6c.6 0 1 .4 1 1s-.4 1-1 1h-2v4c0 .6-.4 1-1 1zm-8 0c-.6 0-1-.4-1-1v-9c0-.6.4-1 1-1s1 .4 1 1v9c0 .6-.4 1-1 1zm-8 0c-.6 0-1-.4-1-1v-6H1c-.6 0-1-.4-1-1s.4-1 1-1h6c.6 0 1 .4 1 1s-.4 1-1 1H5v6c0 .6-.4 1-1 1zm16-9c-.6 0-1-.4-1-1V3c0-.6.4-1 1-1s1 .4 1 1v9c0 .6-.4 1-1 1zM4 11c-.6 0-1-.4-1-1V3c0-.6.4-1 1-1s1 .4 1 1v7c0 .6-.4 1-1 1zm11-2H9c-.6 0-1-.4-1-1s.4-1 1-1h2V3c0-.6.4-1 1-1s1 .4 1 1v4h2c.6 0 1 .4 1 1s-.4 1-1 1z"/></svg>