<svg xmlns="http://www.w3.org/2000/svg" viewBox="0 0 24 24"><path d="M12 24c-.6 0-1-.4-1-1v-2c0-.6.4-1 1-1s1 .4 1 1v2c0 .6-.4 1-1 1zm7.8-3.2c-.3 0-.5-.1-.7-.3l-1.4-1.4c-.4-.4-.4-1 0-1.4s1-.4 1.4 0l1.4 1.4c.4.4.4 1 0 1.4-.2.2-.5.3-.7.3zm-15.6 0c-.3 0-.5-.1-.7-.3-.4-.4-.4-1 0-1.4l1.4-1.4c.4-.4 1-.4 1.4 0s.4 1 0 1.4l-1.4 1.4c-.2.2-.4.3-.7.3zM12 18c-3.3 0-6-2.7-6-6s2.7-6 6-6 6 2.7 6 6-2.7 6-6 6zm0-10c-2.2 0-4 1.8-4 4s1.8 4 4 4 4-1.8 4-4-1.8-4-4-4zm11 5h-2c-.6 0-1-.4-1-1s.4-1 1-1h2c.6 0 1 .4 1 1s-.4 1-1 1zM3 13H1c-.6 0-1-.4-1-1s.4-1 1-1h2c.6 0 1 .4 1 1s-.4 1-1 1zm15.4-6.4c-.3 0-.5-.1-.7-.3-.4-.4-.4-1 0-1.4l1.4-1.4c.4-.4 1-.4 1.4 0s.4 1 0 1.4l-1.4 1.4c-.2.2-.5.3-.7.3zm-12.8 0c-.3 0-.5-.1-.7-.3L3.5 4.9c-.4-.4-.4-1 0-1.4s1-.4 1.4 0l1.4 1.4c.4.4.4 1 0 1.4-.1.2-.4.3-.7.3zM12 4c-.6 0-1-.4-1-1V1c0-.6.4-1 1-1s1 .4 1 1v2c0 .6-.4 1-1 1z"/></svg>