<svg xmlns="http://www.w3.org/2000/svg" viewBox="0 0 24 24"><path d="M23 23H1c-.6 0-1-.4-1-1s.4-1 1-1h22c.6 0 1 .4 1 1s-.4 1-1 1zm0-4h-2c-.6 0-1-.4-1-1s.4-1 1-1h2c.6 0 1 .4 1 1s-.4 1-1 1zm-6 0c-.6 0-1-.4-1-1 0-2.2-1.8-4-4-4s-4 1.8-4 4c0 .6-.4 1-1 1s-1-.4-1-1c0-3.3 2.7-6 6-6s6 2.7 6 6c0 .6-.4 1-1 1zM3 19H1c-.6 0-1-.4-1-1s.4-1 1-1h2c.6 0 1 .4 1 1s-.4 1-1 1zm15.4-6.4c-.3 0-.5-.1-.7-.3-.4-.4-.4-1 0-1.4l1.4-1.4c.4-.4 1-.4 1.4 0s.4 1 0 1.4l-1.4 1.4c-.2.2-.5.3-.7.3zm-12.8 0c-.3 0-.5-.1-.7-.3l-1.4-1.4c-.4-.4-.4-1 0-1.4s1-.4 1.4 0l1.4 1.4c.4.4.4 1 0 1.4-.1.2-.4.3-.7.3zM12 10c-.6 0-1-.4-1-1V4.4L8.7 6.7c-.4.4-1 .4-1.4 0s-.4-1 0-1.4l4-4c.1-.1.2-.2.3-.2.1-.1.3-.1.4-.1.1 0 .3 0 .4.1.1 0 .2.1.3.2l4 4c.4.4.4 1 0 1.4s-1 .4-1.4 0L13 4.4V9c0 .6-.4 1-1 1z"/></svg>