<svg xmlns="http://www.w3.org/2000/svg" viewBox="0 0 24 24"><path d="M5.1 22c-.8 0-1.6-.3-2.2-.9-.6-.6-.9-1.4-.9-2.2s.3-1.6.9-2.2l6.4-6.4c-1.1-3.4.5-7.1 3.8-8.6 1.8-.8 3.9-.8 5.8 0 .3.1.5.4.6.7.1.3 0 .7-.3.9L15.4 7l-.7-.7.7.7L17 8.6l3.8-3.8c.2-.2.6-.3.9-.3.3.1.6.3.7.6.8 1.7.8 3.6.2 5.4-.7 1.8-2 3.1-3.7 3.9-1.6.7-3.4.8-5.1.3l-6.4 6.4c-.7.6-1.5.9-2.3.9zM16 3c-.7 0-1.4.1-2.1.4-2.5 1.1-3.6 4.1-2.5 6.6.2.4.1.8-.2 1.1L4.3 18c-.2.3-.3.6-.3.9s.1.6.3.8c.4.4 1.1.4 1.6 0l6.9-6.9c.3-.3.7-.4 1.1-.2 1.3.6 2.8.6 4.1 0 1.2-.6 2.1-1.5 2.6-2.8.4-.8.5-1.6.4-2.4L18.4 10c-.8.8-2 .8-2.8 0L14 8.4c-.8-.8-.8-2 0-2.8L16.6 3H16z"/></svg>