<svg xmlns="http://www.w3.org/2000/svg" viewBox="0 0 24 24"><path d="M18.5 22c-1.9 0-3.5-1.6-3.5-3.5 0-.5.1-1 .3-1.5H8.7c.2.5.3 1 .3 1.5C9 20.4 7.4 22 5.5 22S2 20.4 2 18.5c0-.5.1-1 .3-1.5H1c-.6 0-1-.4-1-1V3c0-.6.4-1 1-1h15c.6 0 1 .4 1 1v4h3c.3 0 .5.1.7.3l3 3c.2.2.3.4.3.7v5c0 .6-.4 1-1 1h-1.3c.2.5.3 1 .3 1.5 0 1.9-1.6 3.5-3.5 3.5zm0-5c-.8 0-1.5.7-1.5 1.5s.7 1.5 1.5 1.5 1.5-.7 1.5-1.5-.7-1.5-1.5-1.5zm-13 0c-.8 0-1.5.7-1.5 1.5S4.7 20 5.5 20 7 19.3 7 18.5 6.3 17 5.5 17zm13-2H22v-3.6L19.6 9H17v6h1.5zm-13 0H15V4H2v11h3.5z"/></svg>