<svg xmlns="http://www.w3.org/2000/svg" viewBox="0 0 24 24"><path d="M12 22c-.6 0-1-.4-1-1v-6.6l-2.3 2.3c-.4.4-1 .4-1.4 0-.2-.2-.3-.4-.3-.7s.1-.5.3-.7l4-4c.1-.1.2-.2.3-.2.1 0 .2-.1.4-.1.1 0 .3 0 .4.1.1 0 .2.1.3.2l4 4c.2.2.3.5.3.7s-.1.5-.3.7c-.4.4-1 .4-1.4 0L13 14.4V21c0 .6-.4 1-1 1zm8.4-2.6c-.4 0-.7-.2-.9-.5-.3-.5-.1-1.1.4-1.4.9-.5 1.6-1.4 1.9-2.4.3-1 .2-2.1-.3-3-.7-1.3-2-2.1-3.5-2.1h-1.3c-.5 0-.9-.3-1-.7-1-3.7-4.8-6-8.5-5-1.8.4-3.3 1.5-4.2 3.1-1 1.7-1.3 3.5-.8 5.4.3 1.1.8 2.1 1.5 2.9.4.4.3 1-.1 1.4-.4.4-1 .3-1.4-.1-.9-1.1-1.6-2.3-2-3.7-.6-2.3-.3-4.7 1-6.8S4.4 3 6.7 2.4c4.6-1.2 9.2 1.4 10.7 5.7h.6c2.2 0 4.2 1.2 5.3 3.1.8 1.4.9 3 .5 4.6-.5 1.5-1.5 2.8-2.9 3.6h-.5z"/></svg>