<svg xmlns="http://www.w3.org/2000/svg" viewBox="0 0 24 24"><path d="M16 22c-.6 0-1-.4-1-1v-2c0-1.7-1.3-3-3-3H5c-1.7 0-3 1.3-3 3v2c0 .6-.4 1-1 1s-1-.4-1-1v-2c0-2.8 2.2-5 5-5h7c2.8 0 5 2.2 5 5v2c0 .6-.4 1-1 1zm7-8c-.3 0-.5-.1-.7-.3l-1.8-1.8-1.8 1.8c-.4.4-1 .4-1.4 0s-.4-1 0-1.4l1.8-1.8-1.8-1.8c-.4-.4-.4-1 0-1.4s1-.4 1.4 0l1.8 1.8 1.8-1.8c.4-.4 1-.4 1.4 0s.4 1 0 1.4l-1.8 1.8 1.8 1.8c.4.4.4 1 0 1.4-.2.2-.4.3-.7.3zM8.5 12c-2.8 0-5-2.2-5-5s2.2-5 5-5 5 2.2 5 5-2.2 5-5 5zm0-8c-1.7 0-3 1.3-3 3s1.3 3 3 3 3-1.3 3-3-1.3-3-3-3z"/></svg>