<svg xmlns="http://www.w3.org/2000/svg" viewBox="0 0 24 24"><path d="M9.8 24c-1.6 0-2.8-1.2-3-2.7l-.3-3.4C5 16.4 4 14.3 4 12c0-2.3 1-4.4 2.5-5.8l.3-3.4C7 1.2 8.3 0 9.8 0h4.4c1.6 0 2.9 1.2 3 2.7l.3 3.5C19 7.6 20 9.7 20 12s-1 4.4-2.5 5.8l-.3 3.4c-.1 1.6-1.4 2.7-3 2.7H9.8v.1zm-1.1-4.7l.2 1.8c0 .5.5.9 1 .9h4.3c.5 0 1-.4 1-.9l.2-1.8c-2.1.9-4.7.9-6.7 0zM8.1 7.4C6.8 8.5 6 10.2 6 12c0 3.3 2.7 6 6 6 1.5 0 2.8-.5 3.8-1.4 1.3-1.1 2.1-2.7 2.1-4.6 0-3.3-2.7-6-6-6-1.4 0-2.7.5-3.8 1.4zM12 4c1.2 0 2.3.3 3.4.7l-.2-1.8c0-.5-.5-.9-1-.9H9.8c-.5 0-.9.4-1 .9l-.1 1.8c1-.4 2.1-.7 3.3-.7zm1.5 10.5c-.3 0-.5-.1-.7-.3l-1.5-1.5c-.2-.2-.3-.4-.3-.7V9c0-.6.4-1 1-1s1 .4 1 1v2.6l1.2 1.2c.4.4.4 1 0 1.4-.2.2-.4.3-.7.3z"/></svg>