<svg xmlns="http://www.w3.org/2000/svg" viewBox="0 0 24 24"><path d="M23 24c-.3 0-.5-.1-.7-.3l-6.6-6.6c-.3.1-.5 0-.8-.2-1.7-1.2-4.1-1.2-5.8 0-.5.3-1.1.2-1.4-.2-.3-.5-.2-1.1.2-1.4 1.4-1 3-1.4 4.7-1.3l-2.8-2.8c-1.5.3-3 1.1-4.2 2.1-.4.4-1.1.3-1.4-.1-.4-.4-.3-1.1.1-1.4 1.1-1 2.5-1.7 3.9-2.2L5.9 7.3c-1.4.6-2.7 1.4-3.8 2.4-.4.4-1 .3-1.4-.1-.4-.4-.3-1 .1-1.4 1.1-1 2.3-1.8 3.6-2.5l-4.1-4C-.1 1.3-.1.7.3.3s1-.4 1.4 0l5.1 5.1 3.9 3.9c.1 0 .1.1.2.2l12.8 12.8c.4.4.4 1 0 1.4-.2.2-.4.3-.7.3zm-11-3c-.6 0-1-.4-1-1s.4-1 1-1 1 .4 1 1-.4 1-1 1zm7-7.5c-.2 0-.5-.1-.6-.2-.6-.5-1.3-1-2.1-1.4-.5-.2-.7-.8-.5-1.3s.8-.7 1.3-.5c.9.4 1.7 1 2.5 1.6.4.4.5 1 .1 1.4-.1.3-.4.4-.7.4zm3.6-3.5c-.2 0-.5-.1-.7-.3-3-2.7-7.1-4-11.1-3.7-.5 0-1-.4-1.1-.9 0-.6.4-1 .9-1.1 4.6-.4 9.2 1.2 12.6 4.2.4.4.5 1 .1 1.4-.2.3-.4.4-.7.4z"/></svg>