<svg xmlns="http://www.w3.org/2000/svg" viewBox="0 0 24 24"><path d="M12 21c-.6 0-1-.4-1-1s.4-1 1-1 1 .4 1 1-.4 1-1 1zm3.5-3.9c-.2 0-.4-.1-.6-.2-1.7-1.2-4.1-1.2-5.8 0-.5.3-1.1.2-1.4-.2-.3-.5-.2-1.1.2-1.4 2.4-1.7 5.7-1.7 8.1 0 .5.3.6.9.2 1.4-.1.3-.4.4-.7.4zm3.6-3.6c-.2 0-.5-.1-.6-.2-3.7-3.1-9.1-3.1-12.8 0-.4.4-1.1.3-1.4-.1-.4-.4-.3-1.1.1-1.4 4.5-3.7 10.9-3.7 15.4 0 .4.4.5 1 .1 1.4-.2.2-.5.3-.8.3zM1.4 10c-.3 0-.6-.1-.8-.3-.4-.4-.3-1 .1-1.4 6.4-5.6 16.1-5.6 22.5 0 .4.4.5 1 .1 1.4-.4.4-1 .5-1.4.1-5.7-5-14.2-5-19.8 0-.2.1-.4.2-.7.2z"/></svg>