<svg xmlns="http://www.w3.org/2000/svg" viewBox="0 0 24 24"><path d="M23 24c-.3 0-.5-.1-.7-.3l-6.2-6.2-4.3 5.2c-.3.3-.8.5-1.2.3-.4-.2-.6-.6-.6-1l.9-6.9H3c-.4 0-.7-.2-.9-.6-.2-.4-.1-.8.1-1.1l4.4-5.3L.3 1.7C-.1 1.3-.1.7.3.3s1-.4 1.4 0l7 7 8 8 7 7c.4.4.4 1 0 1.4-.2.2-.4.3-.7.3zm-10-9.6l-.5 4.4 2.2-2.7-1.7-1.7zM5.1 13h6.5L8.1 9.5l-3 3.5zm13.5.9c-.2 0-.5-.1-.6-.2-.4-.4-.5-1-.1-1.4L19 11h-3.2c-.6 0-1-.4-1-1s.4-1 1-1H21c.4 0 .7.2.9.6.2.4.1.8-.1 1.1l-2.4 2.9c-.3.2-.5.3-.8.3zm-6.2-6.1h-.1c-.5-.1-.9-.6-.9-1.1l.2-1.4-.2.3c-.4.4-1 .4-1.5.1-.4-.4-.5-1-.1-1.4l2.4-2.9c.3-.4.8-.5 1.2-.3.4.2.6.6.6 1l-.6 4.8c-.1.5-.5.9-1 .9z"/></svg>